<svg xmlns="http://www.w3.org/2000/svg" viewBox="0 0 512 512"><title>Mac</title><g id="Mac"><g id="Mac-2" data-name="Mac"><path d="M123.1611,297.3789a27.5746,27.5746,0,0,0,27.5819,27.5769h67.666V350.815H181.5938v21.174H328.7971V350.815H291.991V324.9558h67.666a27.581,27.581,0,0,0,27.5819-27.5769v-16.68H123.1611ZM255.2,292.0879a9.189,9.189,0,1,1-9.194,9.1839A9.1887,9.1887,0,0,1,255.2,292.0879Z"/><path d="M359.657,140.011H150.743a27.5758,27.5758,0,0,0-27.5819,27.5829v95.4646H387.2389V167.5939A27.5823,27.5823,0,0,0,359.657,140.011Z"/></g></g></svg>